<?xml version="1.0" encoding="UTF-8" standalone="no"?>
<!-- Created with Inkscape (http://www.inkscape.org/) -->

<svg
   viewBox="0 0 1050.235 824.32118"
   version="1.1"
   id="svg1"
   xml:space="preserve"
   inkscape:version="1.3.2 (091e20ef0f, 2023-11-25, custom)"
   sodipodi:docname="empty_bg.svg"
   inkscape:export-filename="empty_bg_exp.svg"
   inkscape:export-xdpi="96"
   inkscape:export-ydpi="96"
   xmlns:inkscape="http://www.inkscape.org/namespaces/inkscape"
   xmlns:sodipodi="http://sodipodi.sourceforge.net/DTD/sodipodi-0.dtd"
   xmlns="http://www.w3.org/2000/svg"
   xmlns:svg="http://www.w3.org/2000/svg"><sodipodi:namedview
     id="namedview1"
     pagecolor="#ffffff"
     bordercolor="#000000"
     borderopacity="0.25"
     inkscape:showpageshadow="2"
     inkscape:pageopacity="0.0"
     inkscape:pagecheckerboard="0"
     inkscape:deskcolor="#d1d1d1"
     inkscape:document-units="px"
     inkscape:zoom="0.69946287"
     inkscape:cx="533.98117"
     inkscape:cy="418.89286"
     inkscape:window-width="1704"
     inkscape:window-height="996"
     inkscape:window-x="0"
     inkscape:window-y="0"
     inkscape:window-maximized="1"
     inkscape:current-layer="svg1" /><defs
     id="defs1"><filter
       style="color-interpolation-filters:sRGB"
       inkscape:label="Drop Shadow"
       id="filter133"
       x="-7.9817102"
       y="-8.5866542"
       width="16.96342"
       height="18.173308"><feFlood
         result="flood"
         in="SourceGraphic"
         flood-opacity="1.000000"
         flood-color="rgb(255,255,255)"
         id="feFlood132" /><feGaussianBlur
         result="blur"
         in="SourceGraphic"
         stdDeviation="3.000000"
         id="feGaussianBlur132" /><feOffset
         result="offset"
         in="blur"
         dx="0.000000"
         dy="0.000000"
         id="feOffset132" /><feComposite
         result="comp1"
         operator="in"
         in="offset"
         in2="flood"
         id="feComposite132" /><feComposite
         result="comp2"
         operator="over"
         in="SourceGraphic"
         in2="comp1"
         id="feComposite133" /></filter></defs><rect
     style="display:none;fill:#1e244c;stroke-width:6.53859;stroke-linecap:round;stroke-linejoin:round"
     id="rect3"
     width="1050.235"
     height="824.32117"
     x="0"
     y="0" /><g
     id="g2"
     transform="matrix(12.166871,0,0,12.166871,256.88254,156.83557)"
     style="display:inline;fill:none;stroke-width:0.837274;stroke-dasharray:none"
     inkscape:label="center star"><path
       id="path4"
       style="fill:none;stroke:#fdba74;stroke-width:1.12459;stroke-linecap:round;stroke-linejoin:round;stroke-dasharray:none;stroke-opacity:1;filter:url(#filter133)"
       inkscape:transform-center-x="0.060039472"
       inkscape:transform-center-y="-0.77407279"
       d="m 25.531844,26.475156 -3.3748,-2.923007 c 0,0 -2.668678,1.985149 -4.185667,2.321202 -0.573382,-1.40045 0.389137,-3.350717 0.703609,-4.734207 -0.526748,-1.50594 -2.979135,-1.916853 -3.501036,-3.263517 -0.08896,-0.229644 1.955917,-0.132663 4.719931,-0.793772 0,0 1.498697,-3.458668 2.02191,-4.338167 1.524127,0.506672 3.31657,2.939615 3.31657,2.939615"
       sodipodi:nodetypes="ccccsccc"
       inkscape:label="path4" /></g><g
     id="g1"
     transform="translate(-447.21575,-310.45818)"><path
       style="color:#000000;fill:#ffffff;stroke-width:1.12262;stroke-linecap:round;stroke-linejoin:round;stroke-dasharray:none;-inkscape-stroke:none;filter:url(#filter133)"
       d="m -4.3027344,-5.9453125 c -0.1647363,0.088306 -0.2055316,0.2616039 -0.2089843,0.3867188 -0.00397,0.1438567 0.096047,0.2781948 0.1757812,0.3339843 0.079734,0.05579 0.1471526,0.076486 0.2109375,0.095703 0.1275698,0.038434 0.2495788,0.067503 0.2675781,0.076172 0.037939,0.018271 0.087016,0.039074 0.125,0.058594 -0.021232,0.059337 -0.045396,0.1179973 -0.044922,0.1914062 6.483e-4,0.1003017 0.033682,0.2250384 0.125,0.3203125 -0.021996,-0.022949 0.00619,0.037029 0.00586,0.1855469 -3.318e-4,0.1485181 -0.026356,0.3921373 0.1796875,0.5898437 0.084157,0.08074 0.2561829,0.1043904 0.3457031,0.072266 0.08952,-0.032125 0.130481,-0.076222 0.1679688,-0.1152344 0.074976,-0.078025 0.1247083,-0.1599718 0.1738281,-0.2480469 0.027711,-0.049687 0.048611,-0.098569 0.072266,-0.1484375 0.037742,0.029826 0.080849,0.081787 0.1171875,0.1074219 0.053392,0.037665 0.1719651,0.072361 0.2675782,0.041016 0.068646,-0.022505 0.088033,-0.055987 0.1132812,-0.085938 0.026536,-0.00243 0.023127,0.016779 0.074219,-0.00586 0.017157,-0.0076 0.054235,-0.032869 0.054687,-0.033203 4.525e-4,-3.337e-4 0.058281,-0.056237 0.058594,-0.056641 6.263e-4,-8.066e-4 0.060466,-0.1551716 0.060547,-0.15625 4.04e-5,-5.392e-4 -0.00186,-0.067754 -0.00195,-0.068359 -9.29e-5,-6.056e-4 -0.00707,-0.034911 -0.011719,-0.048828 -0.0093,-0.027834 -0.020296,-0.047544 -0.029297,-0.0625 -0.00878,-0.014586 -0.012291,-0.011708 -0.019531,-0.021484 0.02129,-0.047825 0.03123,-0.085707 0.037109,-0.1191406 0.01368,-0.077794 0.018503,-0.1526663 0.019531,-0.2324219 0.00103,-0.079756 -0.00218,-0.1600918 -0.00781,-0.2304687 -0.00281,-0.035189 -0.00634,-0.066814 -0.011719,-0.099609 -0.00538,-0.032795 0.00129,-0.05287 -0.042969,-0.1347656 -1.78e-4,-3.294e-4 -0.030986,-0.048511 -0.03125,-0.048828 -2.643e-4,-3.175e-4 -0.022814,-0.024118 -0.033203,-0.033203 -0.020779,-0.018169 -0.039496,-0.028801 -0.054687,-0.037109 -0.030383,-0.016616 -0.049676,-0.022578 -0.066406,-0.027344 -0.033459,-0.00953 -0.053908,-0.011394 -0.074219,-0.013672 -0.040621,-0.00456 -0.078262,-0.00515 -0.1210938,-0.00586 -0.085664,-0.00142 -0.1903513,2.245e-4 -0.3027343,0.00195 -0.2247661,0.00346 -0.4890404,0.00161 -0.5976563,-0.013672 -0.022473,-0.00316 -0.049257,-0.00797 -0.072266,-0.011719 -0.177603,-0.1635093 -0.3338437,-0.3081096 -0.515625,-0.3925782 -0.096971,-0.04506 -0.2395605,-0.098072 -0.4042969,-0.00977 z"
       id="path6"
       transform="matrix(4.4464157,0,0,4.4464157,802.97525,558.09802)" /><path
       style="color:#000000;fill:#ffffff;stroke-width:1.12262;stroke-linecap:round;stroke-linejoin:round;stroke-dasharray:none;-inkscape-stroke:none;filter:url(#filter133)"
       d="m 16.898437,-16.867187 c -0.192136,-0.02172 -0.36777,0.01619 -0.626953,0.08984 a 0.35504001,0.35504001 0 0 0 -0.246093,0.439453 0.35504001,0.35504001 0 0 0 0.259765,0.144532 0.35504001,0.35504001 0 0 0 -0.08398,0.49414 0.35504001,0.35504001 0 0 0 0.49414,0.08399 c 0.133655,-0.09476 0.259575,-0.195456 0.365235,-0.302735 0.10566,-0.107279 0.20423,-0.196429 0.251953,-0.40039 0.02386,-0.101981 0.0108,-0.275726 -0.0918,-0.392578 -0.102595,-0.116853 -0.226197,-0.14539 -0.322266,-0.15625 z"
       id="path7"
       transform="matrix(4.4464157,0,0,4.4464157,895.08727,505.31805)" /><path
       style="color:#000000;display:inline;fill:#ffffff;stroke-width:4.99163;stroke-linecap:round;stroke-linejoin:round;stroke-dasharray:none;-inkscape-stroke:none;filter:url(#filter120)"
       d="m 1116.9204,714.65987 c -0.8543,-0.0966 -1.6352,0.072 -2.7876,0.39947 a 1.5786555,1.5786555 0 0 0 -1.0943,1.95399 1.5786555,1.5786555 0 0 0 1.155,0.64264 1.5786555,1.5786555 0 0 0 -0.3734,2.19716 1.5786555,1.5786555 0 0 0 2.1972,0.37345 c 0.5942,-0.42134 1.1541,-0.86907 1.6239,-1.34608 0.4699,-0.47701 0.9081,-0.87341 1.1203,-1.7803 0.1061,-0.45345 0.048,-1.226 -0.4082,-1.74557 -0.4562,-0.51957 -1.0057,-0.64647 -1.4329,-0.69475 z"
       id="path7-0" /><path
       style="color:#000000;fill:#ffffff;stroke-width:1.12262;stroke-linecap:round;stroke-linejoin:round;stroke-dasharray:none;-inkscape-stroke:none;filter:url(#filter133)"
       d="m 28.552734,-21.777344 c -0.36622,0.08782 -0.646484,0.417418 -0.646484,0.835938 0,0.242307 0.09102,0.359351 0.138672,0.447265 -0.0017,0.01982 -0.006,0.0011 -0.0039,0.03711 0.0036,0.06166 0.03453,0.159358 0.09375,0.226562 0.05922,0.0672 0.125009,0.09643 0.171875,0.111328 0.09373,0.02979 0.140347,0.02322 0.195312,0.02148 0.193009,-0.0061 0.331556,-0.0543 0.423828,-0.07031 0.09225,-0.01615 0.174386,-0.0681 0.228516,-0.144531 0.07654,-0.107958 0.129325,-0.139821 0.214844,-0.261719 0.08552,-0.121898 0.123314,-0.349955 0.08984,-0.521484 -0.04609,-0.23623 -0.154051,-0.440369 -0.328125,-0.568359 -0.174073,-0.127991 -0.395014,-0.157192 -0.578125,-0.113282 z m 0.18945,1.259766 c 7.39e-4,0.0057 0.0075,0.01446 0.0078,0.01953 0.0062,0.105959 -0.0101,0.102221 -0.002,0.06445 0.0028,-0.01309 -0.0078,-0.05853 -0.0059,-0.08398 z"
       id="path8"
       sodipodi:nodetypes="sscssssccsssssccscc"
       transform="matrix(4.4464157,0,0,4.4464157,950.7213,483.40745)" /><path
       style="color:#000000;fill:#ffffff;stroke-width:1.12262;stroke-linecap:round;stroke-linejoin:round;stroke-dasharray:none;-inkscape-stroke:none;filter:url(#filter133)"
       d="m 53.283203,1.7460937 c -3.7e-5,-5.5e-6 -0.203082,0.029277 -0.203125,0.029297 -4.3e-5,1.99e-5 -0.09175,0.062455 -0.0918,0.0625 -9.6e-5,9.01e-5 -0.06043,0.074029 -0.06055,0.074219 -2.34e-4,3.791e-4 -0.02317,0.042624 -0.02734,0.052734 -0.0026,0.00638 1.6e-4,0.00253 -0.002,0.00781 a 0.35504001,0.35504001 0 0 0 -0.002,0.00195 c -0.04471,0.1172711 -0.0872,0.2337019 -0.130859,0.3457031 -0.03078,0.078969 -0.041,0.1568745 -0.0293,0.2382813 5.11e-4,0.00355 0.0073,0.0081 0.0078,0.011719 -0.0011,0.00429 -0.0028,0.0095 -0.0039,0.013672 -0.0075,0.027978 -0.03232,0.072297 -0.05078,0.1757812 a 0.35504001,0.35504001 0 0 0 0.287109,0.4121094 0.35504001,0.35504001 0 0 0 0.41211,-0.2871094 c 0.0012,-0.0065 0.01236,-0.024807 0.03711,-0.1171875 0.0089,-0.033121 0.01601,-0.060897 0.02539,-0.097656 0.01973,-0.044569 0.05275,-0.094792 0.06055,-0.1347656 0.03846,-0.1971907 0.05695,-0.2974898 0.06641,-0.359375 0.0024,-0.015471 0.0064,-0.018626 0.0078,-0.064453 3.65e-4,-0.011457 -0.0038,-0.062063 -0.0039,-0.0625 -3.1e-5,-2.185e-4 -0.02924,-0.1014485 -0.0293,-0.1015625 -2.6e-5,-5.7e-5 -0.07419,-0.1034844 -0.07422,-0.1035156 -5e-6,-4.4e-6 -0.02076,-0.010412 -0.02734,-0.013672 a 0.35504001,0.35504001 0 0 0 -0.0957,-0.060547 0.35504001,0.35504001 0 0 0 -0.02344,0 c -0.01807,-0.00894 -0.04882,-0.023436 -0.04883,-0.023437 z"
       id="path9"
       transform="matrix(4.4464157,0,0,4.4464157,1063.8557,591.73697)" /><path
       style="color:#000000;fill:#ffffff;stroke-width:1.12262;stroke-linecap:round;stroke-linejoin:round;stroke-dasharray:none;-inkscape-stroke:none;filter:url(#filter133)"
       d="m 31.017578,0.11523437 c -7.07e-4,-6.342e-5 -0.116564,0.0134681 -0.117187,0.0136719 -6.24e-4,2.038e-4 -0.09906,0.0542324 -0.09961,0.0546875 -5.45e-4,4.5513e-4 -0.042,0.0419776 -0.05469,0.0605469 -0.01269,0.0185693 -0.02118,0.034949 -0.02734,0.0488281 -0.04929,0.11103328 -0.02869,0.12412623 -0.0293,0.15039063 -0.0012,0.0525288 -0.01457,0.11731932 0.0039,0.0390625 -9.68e-4,0.004103 -0.03257,0.0862795 -0.05859,0.18359374 -0.02602,0.0973142 -0.07048,0.2433449 0.0332,0.41796876 0.0908,0.1529443 0.252303,0.2179933 0.335937,0.2421875 0.07998,0.023138 0.09599,0.034654 0.08008,0.021484 0.02586,0.037484 0.07069,0.098416 0.146485,0.1367188 0.117507,0.059375 0.220538,0.079624 0.298828,0.1015625 0.02575,0.00721 0.01384,0.0026 0.03125,0.00977 0.0083,0.035135 0.01556,0.065542 0.02734,0.1132813 0.03861,0.1564126 0.09501,0.3846271 0.166015,0.6914062 a 0.29128751,0.29128751 0 0 0 0.34961,0.21875 0.29128751,0.29128751 0 0 0 0.134765,-0.076172 c 0.04446,-0.00402 0.08977,-0.00778 0.08984,-0.00781 1.33e-4,-5.16e-5 0.105347,-0.070187 0.105469,-0.070312 1.22e-4,-1.261e-4 0.04286,-0.058398 0.04297,-0.058594 1.12e-4,-1.957e-4 0.01943,-0.040755 0.01953,-0.041016 2e-4,-5.212e-4 0.01129,-0.035286 0.01367,-0.046875 0.0024,-0.011589 0.003,-0.019665 0.0039,-0.027344 0.0018,-0.015358 0.0018,-0.02666 0.002,-0.037109 4.3e-4,-0.041798 0.02715,-0.04726 -0.03906,-0.1699219 -0.0032,-0.00584 -0.01501,-0.058805 -0.05078,-0.1601563 C 32.41502,1.8932605 32.36298,1.8585985 32.34183,1.822272 32.29149,1.7108457 32.224841,1.564623 32.191439,1.4902408 c -0.0326,-0.072601 -0.05729,-0.1273272 -0.07813,-0.1699219 -0.01042,-0.021297 -0.0197,-0.037384 -0.03516,-0.0625 -0.0056,-0.00911 -0.01803,-0.024846 -0.03125,-0.041016 -0.0011,-0.00135 -7.32e-4,-0.00247 -0.002,-0.00391 -0.0032,-0.00389 -0.0065,-0.00783 -0.0098,-0.011719 -0.26863,-0.32338907 -0.534551,-0.65037128 -0.810547,-0.9765625 -0.01236,-0.0146105 -0.02744,-0.0315369 -0.05664,-0.0527344 -0.0146,-0.0105987 -0.05585,-0.0328566 -0.05664,-0.0332031 -7.95e-4,-3.4653e-4 -0.09304,-0.0233741 -0.09375,-0.0234375 z"
       id="path10"
       transform="matrix(4.4464157,0,0,4.4464157,964.0187,586.68877)" /><path
       style="color:#000000;fill:#ffffff;stroke-width:1.12262;stroke-linecap:round;stroke-linejoin:round;stroke-dasharray:none;-inkscape-stroke:none;filter:url(#filter133)"
       d="m 59.490234,-10.888672 c -0.25005,-0.06515 -0.501646,-0.02252 -0.839843,0.08008 a 0.35504001,0.35504001 0 0 0 -0.236329,0.44336 0.35504001,0.35504001 0 0 0 0.144532,0.07813 0.35504001,0.35504001 0 0 0 -0.0918,0.0098 c -0.121369,0.152514 -0.295413,0.4048829 -0.378906,0.7167971 -0.04175,0.1559571 -0.08262,0.382995 0.09766,0.5878906 0.09014,0.1024479 0.223534,0.1571031 0.339844,0.171875 0.116309,0.014772 0.225455,5.782e-4 0.341796,-0.027344 0.216752,-0.052021 0.266625,-0.1526203 0.330079,-0.2226563 0.06345,-0.070036 0.121833,-0.1415111 0.115234,-0.1347656 0.158659,-0.1622044 0.302055,-0.3390748 0.414062,-0.5214844 0.112008,-0.1824095 0.20262,-0.3627894 0.208985,-0.5917964 0.0032,-0.114504 -0.02374,-0.251321 -0.107422,-0.367188 -0.08368,-0.115866 -0.212865,-0.190081 -0.337891,-0.222656 z m -0.324218,0.708984 c -0.01657,0.04094 -0.01254,0.04883 -0.04492,0.101563 -0.0071,0.01161 -0.02153,0.02519 -0.0293,0.03711 a 0.35504001,0.35504001 0 0 0 -0.01563,-0.123047 c 0.03147,-0.0036 0.06905,-0.01485 0.08984,-0.01563 z"
       id="path11"
       transform="matrix(4.4464157,0,0,4.4464157,1090.971,534.72582)" /><path
       style="color:#000000;fill:#ffffff;stroke-width:1.12262;stroke-linecap:round;stroke-linejoin:round;stroke-dasharray:none;-inkscape-stroke:none;filter:url(#filter133)"
       d="m -24.484375,21.875 c -0.25005,-0.06515 -0.501647,-0.02252 -0.839844,0.08008 a 0.35504001,0.35504001 0 0 0 -0.236328,0.443359 0.35504001,0.35504001 0 0 0 0.107422,0.05664 0.35504001,0.35504001 0 0 0 -0.05469,0.03125 c -0.121369,0.152514 -0.293461,0.406836 -0.376954,0.71875 -0.04175,0.155957 -0.08262,0.381042 0.09766,0.585938 0.09014,0.102447 0.221581,0.157103 0.33789,0.171875 0.11631,0.01477 0.225455,5.78e-4 0.341797,-0.02734 0.216751,-0.05202 0.268578,-0.15262 0.332031,-0.222656 0.06345,-0.07004 0.119881,-0.139558 0.113282,-0.132813 0.158659,-0.162204 0.304007,-0.341028 0.416015,-0.523437 0.112008,-0.18241 0.202619,-0.36279 0.208985,-0.591797 0.0032,-0.114504 -0.02375,-0.251321 -0.107422,-0.367188 -0.08368,-0.115866 -0.214819,-0.190081 -0.339844,-0.222656 z m -0.324219,0.710937 c -0.01652,0.04049 -0.01124,0.04794 -0.04297,0.09961 -0.0075,0.01229 -0.02299,0.02643 -0.03125,0.03906 a 0.35504001,0.35504001 0 0 0 -0.01367,-0.125 c 0.0307,-0.0035 0.06735,-0.01287 0.08789,-0.01367 z"
       id="path11-9"
       transform="matrix(4.4464157,0,0,4.4464157,702.35375,686.3528)" /><path
       style="color:#000000;fill:#ffffff;stroke-width:1.12262;stroke-linecap:round;stroke-linejoin:round;stroke-dasharray:none;-inkscape-stroke:none;filter:url(#filter133)"
       d="M 4.3378906,8.7109375 C 4.2337846,8.6886301 4.1464117,8.7033202 4.0742187,8.7226563 3.9298329,8.7613284 3.82851,8.8268433 3.7324219,8.8945313 3.5402456,9.0299072 3.3990695,9.1745608 3.3417969,9.2363281 c -0.047279,0.05099 -0.054722,0.06864 -0.076172,0.1015625 -0.02145,0.032922 -0.045615,0.069196 -0.070312,0.1113282 -0.049394,0.084265 -0.1050594,0.187012 -0.1542969,0.2890625 -0.049237,0.1020504 -0.092522,0.1919289 -0.1191406,0.3144527 -0.01331,0.06126 -0.051236,0.133133 0.027344,0.296875 0.03929,0.08187 0.1436992,0.17638 0.2460937,0.203125 0.1023945,0.02675 0.1752461,0.0089 0.2265625,-0.0078 0.1295978,-0.04216 0.2081365,-0.101911 0.2792969,-0.152344 0.07116,-0.05043 0.1336621,-0.09662 0.1542969,-0.109375 0.1482854,-0.09167 0.2890378,-0.185014 0.4277343,-0.273437 A 0.35507552,0.35507552 0 0 0 4.390625,9.9042969 C 4.4682812,9.785157 4.6240548,9.6318876 4.7285156,9.375 4.7970685,9.2064223 4.7286333,9.050325 4.6894531,8.9863281 4.650273,8.9223313 4.6208996,8.8935774 4.6230469,8.8964844 4.5558374,8.8054955 4.4419966,8.7332449 4.3378906,8.7109375 Z"
       id="path12"
       transform="matrix(4.4464157,0,0,4.4464157,835.67479,624.92512)" /><path
       style="color:#000000;fill:#ffffff;stroke-width:1.12262;stroke-linecap:round;stroke-linejoin:round;stroke-dasharray:none;-inkscape-stroke:none;filter:url(#filter133)"
       d="m 51.287248,19.116436 c -6.42e-4,5.6e-5 -0.12036,0.03091 -0.121094,0.03125 -7.34e-4,3.4e-4 -0.04605,0.02469 -0.06055,0.03516 -0.0145,0.01046 -0.02474,0.01966 -0.0332,0.02734 -0.01693,0.01536 -0.02552,0.02637 -0.0332,0.03516 -0.03075,0.03515 -0.05016,0.05721 -0.01758,0.02148 -0.123376,0.135405 -0.28298,0.307666 -0.38086,0.554687 -0.06878,0.173577 -0.09891,0.341604 -0.06836,0.511719 0.03055,0.170114 0.146705,0.351816 0.328125,0.427734 0.09749,0.04079 0.185274,-0.0108 0.28125,-0.02539 0.01408,0.09006 0.03906,0.152181 0.06641,0.203125 0.06514,0.121326 0.150943,0.235428 0.246094,0.351562 0.09515,0.116134 0.197189,0.228438 0.291016,0.320313 0.04691,0.04594 0.09157,0.0861 0.138671,0.123046 0.02355,0.01847 0.04716,0.03546 0.08008,0.05469 0.03292,0.01923 0.06678,0.0484 0.173828,0.05859 0.06641,0.0063 0.183062,-0.004 0.28125,-0.08594 0.09819,-0.08198 0.127793,-0.196744 0.132812,-0.261719 0.01004,-0.129948 -0.01765,-0.166335 -0.03125,-0.205078 -0.02721,-0.07748 -0.04502,-0.153629 -0.0332,-0.07617 -3.63e-4,-0.0024 -4.07e-4,-0.05388 -0.0039,-0.138671 -0.0035,-0.0848 -0.01573,-0.223235 -0.115235,-0.357422 -0.22041,-0.297241 -0.365991,-0.473175 -0.464843,-0.583985 -0.09609,-0.107713 -0.140016,-0.154699 -0.13086,-0.140625 -0.0016,-0.0026 -0.0023,-0.0052 -0.0039,-0.0078 0.01079,0.01772 0.01642,0.04119 -0.0039,-0.04883 -0.02194,-0.09718 -0.06054,-0.268507 -0.140625,-0.560547 -0.0038,-0.01382 -0.01545,-0.04647 -0.01563,-0.04687 -1.75e-4,-4.1e-4 -0.03104,-0.05828 -0.03125,-0.05859 -4.15e-4,-6.25e-4 -0.138136,-0.122781 -0.138672,-0.123047 -5.36e-4,-2.65e-4 -0.190764,-0.03521 -0.191406,-0.03516 z"
       id="path13"
       transform="matrix(4.4464157,0,0,4.4464157,1056.6476,675.13489)" /><path
       style="color:#000000;fill:#ffffff;stroke-width:1.12262;stroke-linecap:round;stroke-linejoin:round;stroke-dasharray:none;-inkscape-stroke:none;filter:url(#filter133)"
       d="m -5.4279579,51.296513 c -0.117325,0.0112 -0.190061,0.05257 -0.257812,0.0957 -0.04957,0.03156 -0.06413,0.123949 -0.109375,0.164063 -0.009,0.005 -0.0081,2.49e-4 -0.01758,0.0059 a 0.35504001,0.35504001 0 0 0 -0.158204,0.253907 c -0.0018,0.0137 -0.01449,0.0087 -0.01563,0.02344 -0.0034,0.0446 0.02624,0.04022 0.0293,0.08008 a 0.35504001,0.35504001 0 0 0 0.01953,0.128906 0.35504001,0.35504001 0 0 0 0.0332,0.0078 c 0.01958,0.05793 0.02663,0.100322 0.05273,0.144531 a 0.35504001,0.35504001 0 0 0 -0.08203,0.03711 0.35504001,0.35504001 0 0 0 0.208984,0.457031 c 0.06845,0.02549 0.122655,0.04494 0.185547,0.05859 0.06289,0.01366 0.15127,0.08067 0.345703,-0.0625 0.09722,-0.07159 0.151237,-0.218436 0.150391,-0.302735 -8.46e-4,-0.0843 -0.02124,-0.127713 -0.03516,-0.160156 -0.02783,-0.06489 -0.04905,-0.09337 -0.07031,-0.125 -0.01849,-0.02752 -0.01495,-0.0187 -0.0293,-0.04492 0.0318,-0.01686 0.05166,-0.01464 0.09375,-0.05469 0.04768,-0.04536 0.106332,-0.125725 0.123047,-0.230469 0.01672,-0.104744 -0.01493,-0.207505 -0.05273,-0.271485 -0.08845,-0.1497 -0.296738,-0.21628 -0.414063,-0.205078 z"
       id="path14"
       transform="matrix(4.4464157,0,0,4.4464157,792.63037,821.17206)" /><path
       style="color:#000000;fill:#ffffff;stroke-width:1.12262;stroke-linecap:round;stroke-linejoin:round;stroke-dasharray:none;-inkscape-stroke:none;filter:url(#filter133)"
       d="m -3.8359375,36.080078 c -2.641e-4,-5.1e-5 -0.2028353,0.01941 -0.203125,0.01953 -2.897e-4,1.19e-4 -0.107106,0.06807 -0.1074219,0.06836 -3.158e-4,2.93e-4 -0.03838,0.03834 -0.048828,0.05273 -0.020897,0.02879 -0.028327,0.048 -0.035156,0.0625 -0.013659,0.029 -0.018626,0.04323 -0.023437,0.05859 -0.048588,0.15512 -0.03932,0.247086 -0.042969,0.355469 -0.036481,0.02958 -0.084916,0.06453 -0.1425781,0.132812 -0.057662,0.06829 -0.1394791,0.206355 -0.1132813,0.375 3.8e-5,2.44e-4 0.013567,0.05632 0.013672,0.05664 1.053e-4,3.23e-4 0.00835,0.0214 0.011719,0.0293 0.00674,0.01579 0.011386,0.0254 0.015625,0.0332 0.00848,0.01561 0.014207,0.02501 0.019531,0.0332 0.010649,0.01638 0.019037,0.02897 0.029297,0.04297 0.02052,0.028 0.045212,0.05929 0.074219,0.0957 0.058013,0.07283 0.1329311,0.163385 0.2109375,0.251953 0.078006,0.08857 0.1565273,0.172753 0.234375,0.24414 0.038924,0.03569 0.073841,0.06848 0.1367188,0.105469 0.031439,0.0185 0.06751,0.04211 0.1542968,0.05469 0.086787,0.01258 0.2776714,-0.03642 0.359375,-0.158203 0.085557,-0.127527 0.1042709,-0.225189 0.1328125,-0.345704 0.028542,-0.120514 0.051289,-0.251854 0.064453,-0.384765 0.013164,-0.132912 0.017753,-0.264797 0.00781,-0.390625 -0.00994,-0.125828 0.025868,-0.258973 -0.1835938,-0.435547 -0.1383788,-0.116653 -0.2544266,-0.169751 -0.359375,-0.228516 -0.017927,-0.02224 -0.035035,-0.04481 -0.035156,-0.04492 -2.392e-4,-2.15e-4 -0.1696578,-0.08393 -0.1699219,-0.08398 z"
       id="path15"
       transform="matrix(4.4464157,0,0,4.4464157,800.27367,752.11876)" /><path
       style="color:#000000;display:inline;fill:#ffffff;stroke-width:4.99163;stroke-linecap:round;stroke-linejoin:round;stroke-dasharray:none;-inkscape-stroke:none;filter:url(#filter120)"
       d="m 1086.3892,764.73117 c 0,-2.3e-4 -0.9019,0.0863 -0.9033,0.0868 0,4.9e-4 -0.4762,0.30268 -0.4776,0.30396 0,10e-4 -0.1706,0.17048 -0.2171,0.23446 -0.093,0.12802 -0.126,0.21343 -0.1564,0.27791 -0.061,0.12894 -0.083,0.19221 -0.1042,0.26051 -0.216,0.68973 -0.1748,1.09865 -0.191,1.58057 -0.1622,0.13152 -0.3776,0.28693 -0.634,0.59053 -0.2564,0.30365 -0.6202,0.91754 -0.5037,1.66741 2e-4,7e-4 0.06,0.25042 0.061,0.25184 5e-4,0.001 0.037,0.0951 0.053,0.13028 0.03,0.0702 0.05,0.11294 0.069,0.14762 0.038,0.0694 0.063,0.11121 0.087,0.14763 0.048,0.0728 0.085,0.1288 0.1303,0.19105 0.091,0.12451 0.201,0.26364 0.33,0.42553 0.258,0.32383 0.591,0.72648 0.938,1.12029 0.3468,0.39381 0.6959,0.76813 1.0421,1.08555 0.1731,0.15869 0.3283,0.30448 0.6078,0.46896 0.1398,0.0823 0.3003,0.18723 0.6862,0.24317 0.3858,0.0559 1.2346,-0.16194 1.5979,-0.70344 0.3804,-0.56703 0.4636,-1.00129 0.5905,-1.53714 0.1269,-0.53586 0.228,-1.11985 0.2866,-1.71083 0.059,-0.59098 0.079,-1.17739 0.035,-1.73688 -0.044,-0.55948 0.115,-1.1515 -0.8163,-1.93662 -0.6153,-0.51869 -1.1313,-0.75478 -1.598,-1.01608 -0.08,-0.0989 -0.1558,-0.19924 -0.1563,-0.19973 0,-7e-4 -0.7544,-0.37319 -0.7556,-0.37341 z"
       id="path15-2" /><path
       style="color:#000000;fill:#ffffff;stroke-width:1.12262;stroke-linecap:round;stroke-linejoin:round;stroke-dasharray:none;-inkscape-stroke:none;filter:url(#filter133)"
       d="m 35.849205,41.189985 c -0.186093,0.04691 -0.318306,0.142538 -0.455079,0.24414 -0.0648,0.04814 -0.102416,0.07015 -0.160156,0.117188 -0.05774,0.04703 -0.159251,0.199534 -0.169922,0.30664 -0.01067,0.107107 0.0019,0.135343 0.0059,0.191407 0.004,0.05606 0.0074,0.133572 0.002,0.259765 a 0.35504001,0.35504001 0 0 0 0.339844,0.369141 0.35504001,0.35504001 0 0 0 0.06445,-0.05859 c 0.02266,0.148493 0.166438,0.329905 0.318359,0.380859 0.280365,0.09404 0.452896,-0.02596 0.609375,-0.130859 0.156479,-0.104897 0.297248,-0.244526 0.408203,-0.416016 0.110956,-0.171489 0.202813,-0.385749 0.15625,-0.640625 -0.04656,-0.254875 -0.266892,-0.477079 -0.541015,-0.574218 -0.19192,-0.06801 -0.392033,-0.09573 -0.578125,-0.04883 z"
       id="path16"
       transform="matrix(4.4464157,0,0,4.4464157,984.6515,775.18164)" /><path
       style="color:#000000;fill:#ffffff;stroke-width:1.12262;stroke-linecap:round;stroke-linejoin:round;stroke-dasharray:none;-inkscape-stroke:none;filter:url(#filter133)"
       d="m 56.410156,45.441406 c -0.120214,0.01031 -0.203712,0.0533 -0.27539,0.107422 -0.03584,0.02706 -0.06974,0.05879 -0.103516,0.105469 -0.03377,0.04668 -0.08316,0.108849 -0.07617,0.25 5e-5,9.93e-4 -5.2e-5,9.65e-4 0,0.002 -0.09525,0.01149 -0.200425,0.0436 -0.263672,0.107422 -0.07396,0.07463 -0.102254,0.150919 -0.11914,0.21289 -0.03377,0.123944 -0.02712,0.217626 -0.01758,0.308594 0.0095,0.09097 0.02627,0.174713 0.04883,0.251953 0.02256,0.07724 0.0022,0.117384 0.128906,0.25586 0.08691,0.09495 0.25285,0.149642 0.365234,0.136718 0.112385,-0.01292 0.181102,-0.05607 0.236328,-0.09375 0.09563,-0.06526 0.152432,-0.136208 0.208985,-0.207031 0.06527,0.03574 0.06594,0.06877 0.164062,0.08984 0.135635,0.02914 0.29518,-0.03944 0.365235,-0.107422 0.07006,-0.06799 0.09462,-0.125541 0.115234,-0.175781 0.04122,-0.100481 0.0549,-0.185909 0.06641,-0.269531 0.0115,-0.08362 0.01627,-0.161092 0.01758,-0.226563 6.52e-4,-0.03274 8.96e-4,-0.0603 -0.002,-0.0957 -0.0014,-0.0177 3.71e-4,-0.03265 -0.01172,-0.07813 -0.003,-0.01137 -0.0079,-0.02586 -0.01563,-0.04492 -0.0077,-0.01906 -0.04465,-0.07776 -0.04492,-0.07813 -1.37e-4,-1.85e-4 -0.0565,-0.06043 -0.05664,-0.06055 -1.42e-4,-1.19e-4 -0.109228,-0.0644 -0.109375,-0.06445 -1.47e-4,-5.3e-5 -0.154145,-0.01759 -0.154297,-0.01758 -1.1e-5,10e-7 -0.0085,0.0016 -0.0098,0.002 -0.02392,-0.05358 -0.02392,-0.11297 -0.06836,-0.160156 -0.102952,-0.109314 -0.268457,-0.160695 -0.388672,-0.150391 z"
       id="path17"
       transform="matrix(4.4464157,0,0,4.4464157,1079.0103,794.66652)" /><path
       style="color:#000000;fill:#ffffff;stroke-width:1.12262;stroke-linecap:round;stroke-linejoin:round;stroke-dasharray:none;-inkscape-stroke:none;filter:url(#filter133)"
       d="m -15.427734,6.8106519 c -0.07088,-0.0016 -0.152035,0.0045 -0.253907,0.01953 -0.06726,0.0099 -0.131265,0.02428 -0.193359,0.03906 -0.08602,0.02047 -0.169156,0.0545 -0.232422,0.115234 -0.06327,0.06073 -0.09635,0.125924 -0.134765,0.201172 a 0.17750675,0.17750675 0 0 0 -0.0098,0.02148 c 0.0066,-0.01883 -0.02702,0.04589 -0.05859,0.101562 -0.01579,0.02784 -0.03631,0.04871 -0.04492,0.121094 -0.0043,0.03619 -0.0012,0.107854 0.05273,0.162109 0.05389,0.05426 0.120088,0.05868 0.15625,0.05664 0.08995,-0.0048 0.242994,0.01611 0.40625,-0.04687 0.175462,-0.0677 0.395123,-0.189848 0.535156,-0.345703 0.03501,-0.03896 0.07212,-0.07883 0.08789,-0.15625 0.01577,-0.07742 -0.03765,-0.200527 -0.107421,-0.242188 -0.06977,-0.04166 -0.13225,-0.04529 -0.203125,-0.04687 z m -0.345704,0.400391 c -0.03669,0.01979 -0.06901,0.05025 -0.0957,0.06055 -0.0017,6.61e-4 -0.0098,-6.07e-4 -0.01172,0 0.0044,-0.0064 0.0175,-0.0293 0.01953,-0.03125 0.0069,-0.0066 0.01064,-0.01166 0.06836,-0.02539 0.0067,-0.0016 0.0129,-0.0024 0.01953,-0.0039 z"
       id="path18"
       transform="matrix(4.4464157,0,0,4.4464157,745.1299,613.80236)" /><path
       style="color:#000000;fill:#ffffff;stroke-width:1.12262;stroke-linecap:round;stroke-linejoin:round;stroke-dasharray:none;-inkscape-stroke:none;filter:url(#filter133)"
       d="m 17.493379,43.68557 c -0.07088,-0.0016 -0.152035,0.0045 -0.253907,0.01953 -0.06726,0.0099 -0.131265,0.02428 -0.193359,0.03906 -0.08602,0.02047 -0.169156,0.0545 -0.232422,0.115234 -0.06327,0.06073 -0.09635,0.125924 -0.134765,0.201172 a 0.17750675,0.17750675 0 0 0 -0.0098,0.02148 c 0.0066,-0.01883 -0.02702,0.04589 -0.05859,0.101563 -0.01579,0.02784 -0.03631,0.04871 -0.04492,0.121094 -0.0043,0.03619 -0.0012,0.107854 0.05273,0.162109 0.05389,0.05426 0.120088,0.05868 0.15625,0.05664 0.08978,-0.005 0.24222,0.01836 0.40625,-0.04492 0.175462,-0.0677 0.397076,-0.191802 0.537109,-0.347656 0.03501,-0.03896 0.07017,-0.07883 0.08594,-0.15625 0.01577,-0.07742 -0.03765,-0.200527 -0.107422,-0.242188 -0.06977,-0.04166 -0.132249,-0.04529 -0.203125,-0.04687 z m -0.345703,0.400391 c -0.03669,0.01979 -0.06902,0.05025 -0.0957,0.06055 -0.0017,6.6e-4 -0.0098,-6.07e-4 -0.01172,0 0.0045,-0.0064 0.0175,-0.0293 0.01953,-0.03125 0.0069,-0.0066 0.01064,-0.01166 0.06836,-0.02539 0.0067,-0.0016 0.0129,-0.0024 0.01953,-0.0039 z"
       id="path18-9"
       transform="matrix(4.4464157,0,0,4.4464157,897.48559,784.45586)" /></g></svg>
